HIERARCHY
ROOT Hips
{
	OFFSET 0.000000 0.000000 0.000000
	CHANNELS 6 Xposition Yposition Zposition Zrotation Yrotation Xrotation 
	JOINT LHipJoint
	{
		OFFSET 0.000000 0.000000 0.000000
		CHANNELS 3 Zrotation Yrotation Xrotation
		JOINT LeftUpLeg
		{
			OFFSET 1.363060 -1.794630 0.839290
			CHANNELS 3 Zrotation Yrotation Xrotation
			JOINT LeftLeg
			{
				OFFSET 2.448110 -6.726130 0.000000
				CHANNELS 3 Zrotation Yrotation Xrotation
				JOINT LeftFoot
				{
					OFFSET 2.562200 -7.039590 0.000000
					CHANNELS 3 Zrotation Yrotation Xrotation
					JOINT LeftToeBase
					{
						OFFSET 0.157640 -0.433110 2.322550
						CHANNELS 3 Zrotation Yrotation Xrotation
						End Site
						{
							OFFSET 0.000000 0.000000 0.000000
						}
					}
				}
			}
		}
	}
	JOINT RHipJoint
	{
		OFFSET 0.000000 0.000000 0.000000
		CHANNELS 3 Zrotation Yrotation Xrotation
		JOINT RightUpLeg
		{
			OFFSET -1.305520 -1.794630 0.839290
			CHANNELS 3 Zrotation Yrotation Xrotation
			JOINT RightLeg
			{
				OFFSET -2.542530 -6.985550 0.000000
				CHANNELS 3 Zrotation Yrotation Xrotation
				JOINT RightFoot
				{
					OFFSET -2.568260 -7.056230 0.000000
					CHANNELS 3 Zrotation Yrotation Xrotation
					JOINT RightToeBase
					{
						OFFSET -0.164730 -0.452590 2.363150
						CHANNELS 3 Zrotation Yrotation Xrotation
						End Site
						{
							OFFSET 0.000000 0.000000 0.000000
						}
					}
				}
			}
		}
	}
	JOINT LowerBack
	{
		OFFSET 0.000000 0.000000 0.000000
		CHANNELS 3 Zrotation Yrotation Xrotation
		JOINT Spine
		{
			OFFSET 0.028270 2.035590 -0.193380
			CHANNELS 3 Zrotation Yrotation Xrotation
			JOINT Spine1
			{
				OFFSET 0.056720 2.048850 -0.042750
				CHANNELS 3 Zrotation Yrotation Xrotation
				JOINT Neck
				{
					OFFSET 0.000000 0.000000 0.000000
					CHANNELS 3 Zrotation Yrotation Xrotation
					JOINT Neck1
					{
						OFFSET -0.054170 1.746240 0.172020
						CHANNELS 3 Zrotation Yrotation Xrotation
						JOINT Head
						{
							OFFSET 0.104070 1.761360 -0.123970
							CHANNELS 3 Zrotation Yrotation Xrotation
							End Site
							{
								OFFSET 0.000000 0.000000 0.000000
							}
						}
					}
				}
				JOINT LeftShoulder
				{
					OFFSET 0.000000 0.000000 0.000000
					CHANNELS 3 Zrotation Yrotation Xrotation
					JOINT LeftArm
					{
						OFFSET 3.362410 1.200890 -0.311210
						CHANNELS 3 Zrotation Yrotation Xrotation
						JOINT LeftForeArm
						{
							OFFSET 4.983000 -0.000000 -0.000000
							CHANNELS 3 Zrotation Yrotation Xrotation
							JOINT LeftHand
							{
								OFFSET 3.483560 -0.000000 -0.000000
								CHANNELS 3 Zrotation Yrotation Xrotation
								JOINT LeftFingerBase
								{
									OFFSET 0.000000 0.000000 0.000000
									CHANNELS 3 Zrotation Yrotation Xrotation
									JOINT LeftHandIndex1
									{
										OFFSET 0.715260 -0.000000 -0.000000
										CHANNELS 3 Zrotation Yrotation Xrotation
										End Site
										{
											OFFSET 0.000000 0.000000 0.000000
										}
									}
								}
								JOINT LThumb
								{
									OFFSET 0.000000 0.000000 0.000000
									CHANNELS 3 Zrotation Yrotation Xrotation
									End Site
									{
										OFFSET 0.000000 0.000000 0.000000
									}
								}
							}
						}
					}
				}
				JOINT RightShoulder
				{
					OFFSET 0.000000 0.000000 0.000000
					CHANNELS 3 Zrotation Yrotation Xrotation
					JOINT RightArm
					{
						OFFSET -3.136600 1.374050 -0.404650
						CHANNELS 3 Zrotation Yrotation Xrotation
						JOINT RightForeArm
						{
							OFFSET -5.241900 -0.000000 -0.000000
							CHANNELS 3 Zrotation Yrotation Xrotation
							JOINT RightHand
							{
								OFFSET -3.444170 -0.000000 -0.000000
								CHANNELS 3 Zrotation Yrotation Xrotation
								JOINT RightFingerBase
								{
									OFFSET 0.000000 0.000000 0.000000
									CHANNELS 3 Zrotation Yrotation Xrotation
									JOINT RightHandIndex1
									{
										OFFSET -0.622530 -0.000000 -0.000000
										CHANNELS 3 Zrotation Yrotation Xrotation
										End Site
										{
											OFFSET 0.000000 0.000000 0.000000
										}
									}
								}
								JOINT RThumb
								{
									OFFSET 0.000000 0.000000 0.000000
									CHANNELS 3 Zrotation Yrotation Xrotation
									End Site
									{
										OFFSET 0.000000 0.000000 0.000000
									}
								}
							}
						}
					}
				}
			}
		}
	}
}
MOTION
Frames: 8
Frame Time: 0.008333
-35.856032 17.312949 3.510695 -171.134470 32.997133 -173.142730 17.029479 -0.437496 -0.641474 -1.526324 -40.167731 -18.148362 -8.666555 3.112151 -1.585500 5.054510 6.421428 35.807675 14.998900 -19.389500 -75.233500 -23.208693 -2.895559 -6.489856 57.574192 5.939289 16.988082 15.006624 -1.655744 6.449691 -1.377579 -0.999689 -20.039482 -0.964100 6.251900 -17.517000 -3.780388 -4.579430 21.920354 6.715669 -5.921695 -6.172820 29.090313 3.099477 -22.558257 -9.226813 -2.026386 -15.596100 -1.377175 7.498048 27.181887 -1.020400 3.233200 22.889400 9.525430 -8.898897 1.858006 -121.585170 28.846624 -14.850515 21.786770 -39.363040 -7.967843 0.079311 3.657800 0.163222 24.857938 28.825538 11.010500 -7.125000 0.000000 0.000000 -5.118200 56.884000 -1.493200 -5.770034 7.558149 1.276216 48.146740 -13.364843 78.583605 -29.787183 38.462482 -8.727395 0.953710 -1.606801 -22.151099 -24.824629 -19.136729 7.828200 7.125000 0.000000 0.000000 2.692400 -48.663800 -0.243500 
-35.745392 17.273576 3.221006 -171.272427 34.940239 -172.751948 17.462979 -1.079673 -0.217618 0.758826 -45.193428 -19.631174 -8.372995 3.771147 -1.793989 5.616389 7.966744 36.483145 14.821700 -19.344600 -74.699100 -23.328679 -2.740730 -6.835261 57.301520 5.968498 18.283749 14.973458 -1.442504 6.466265 -1.299258 0.182347 -19.829540 -0.759000 5.564000 -15.524500 -3.953846 -4.280113 21.169335 6.637822 -5.672309 -6.126202 28.602129 3.074971 -22.169692 -9.069685 -1.844765 -15.649340 -1.178390 7.488273 27.019949 -0.904700 3.209000 22.677200 9.515900 -8.841131 1.887490 -121.360580 29.263724 -14.513461 21.800063 -39.386335 -8.011476 0.088146 3.645091 -0.522962 25.659720 29.217857 11.544800 -7.125000 0.000000 0.000000 -4.448600 57.463500 -1.359600 -5.820492 7.590489 1.274130 48.651458 -13.353592 78.122966 -29.719927 38.475407 -8.719161 0.959776 -1.614076 -22.041877 -25.053104 -19.591586 8.105900 7.125000 0.000000 0.000000 2.550700 -49.175300 -0.262800 
-35.629032 17.236622 2.928127 -170.626744 36.450216 -172.189590 17.452858 -1.071673 -0.267893 0.930642 -44.538483 -19.931147 -8.352678 3.851099 -1.944870 5.093740 9.349887 34.813697 14.602000 -19.286500 -74.034700 -23.417878 -2.729846 -6.875013 57.654592 5.973113 19.374904 14.975892 -1.440178 6.789066 -1.239449 1.371883 -19.803848 -0.441800 4.264800 -11.822800 -3.442861 -4.181967 20.718317 6.618559 -5.406311 -6.088110 28.068639 3.010566 -21.875581 -8.896520 -1.760246 -15.688213 -1.038603 7.328963 26.883052 -0.849700 3.137200 22.486600 9.532035 -8.822716 1.886872 -121.129784 29.425040 -14.757110 21.444341 -39.039138 -7.898993 0.134202 3.637035 -0.537265 26.179041 29.332111 11.833200 -7.125000 0.000000 0.000000 -3.972400 57.694900 -1.235900 -5.875003 7.586044 1.265899 49.122783 -13.294224 77.836094 -29.544449 38.387240 -8.652001 0.950018 -1.628210 -22.193606 -25.558033 -19.553518 8.256300 7.125000 0.000000 0.000000 2.063200 -49.192300 -0.213400 
-35.509153 17.203408 2.639978 -169.806907 37.849149 -171.545943 17.366407 -0.881846 -0.463717 0.081172 -42.209440 -20.009246 -8.546851 4.037974 -1.477882 4.216949 10.093855 32.281760 14.673900 -19.305800 -74.252500 -23.495465 -2.754058 -6.812372 58.127160 6.103397 20.296505 14.967320 -1.571165 7.354281 -1.194550 2.401548 -19.817452 -0.264500 3.308300 -9.138200 -2.898532 -4.097719 20.419819 6.607707 -5.128844 -6.069597 27.654624 3.001320 -21.736230 -8.782320 -1.727489 -15.646214 -0.824321 7.084599 26.767637 -0.738300 3.034300 22.274200 9.580085 -8.835380 1.842671 -120.768296 29.232179 -15.587064 20.485157 -38.075179 -7.534706 0.227214 3.641366 0.259408 26.293198 29.111490 11.775200 -7.125000 0.000000 0.000000 -3.812300 57.478000 -1.166000 -5.934113 7.604648 1.268933 49.519039 -13.524825 77.465284 -29.391852 38.295243 -8.583516 0.922653 -1.648458 -22.030197 -25.927371 -18.862667 8.057600 7.125000 0.000000 0.000000 1.598300 -48.483800 -0.137400 
-35.379926 17.169974 2.347869 -169.430567 39.321723 -171.059745 17.313184 -0.763888 -0.491126 -0.621596 -41.357069 -19.882259 -8.792125 4.760970 0.185893 3.784753 11.199439 31.954246 15.158500 -19.428500 -75.713600 -23.442841 -2.812378 -6.831137 57.666109 5.593708 20.541561 14.706539 -2.079760 8.719540 -1.007397 4.325643 -19.294945 -0.223900 3.045500 -8.405600 -2.859927 -3.882901 20.019381 6.585415 -4.845099 -6.061249 27.485465 3.091381 -21.626439 -8.786452 -1.768733 -15.587945 -0.572909 6.790467 26.678561 -0.588100 2.905500 22.078800 9.600930 -8.839431 1.805867 -120.423884 29.179348 -15.995553 19.642171 -37.233050 -7.213834 0.306091 3.637507 0.849801 26.450576 28.853676 11.725400 -7.125000 0.000000 0.000000 -3.594500 57.237700 -1.078400 -5.980446 7.656811 1.280322 49.822365 -14.094686 76.794629 -29.221085 38.162802 -8.495503 0.929439 -1.652303 -21.535166 -25.412933 -18.938109 7.920700 7.125000 0.000000 0.000000 2.092000 -48.492000 -0.180300 
-35.245199 17.138079 2.047402 -169.075520 40.601331 -170.727427 17.302823 -0.511538 -0.622469 -2.426655 -39.474756 -19.751934 -9.157453 5.482695 2.046952 2.921727 10.152337 28.821206 15.251000 -19.450500 -75.991600 -23.443606 -2.886646 -6.785129 57.513261 5.548426 21.094073 14.497261 -2.555756 10.099007 -0.941384 5.458128 -19.103935 -0.173500 2.683300 -7.398200 -2.735459 -3.694515 19.720493 6.570194 -4.546569 -6.036394 27.372179 3.185379 -21.533304 -9.250017 -1.877377 -15.219782 -0.243292 6.474834 26.592624 -0.406700 2.739600 21.580400 9.599487 -8.846192 1.783564 -120.147211 29.230196 -15.866566 19.039229 -36.665622 -6.996760 0.354965 3.644538 1.162298 26.685344 29.175790 11.963900 -7.125000 0.000000 0.000000 -3.480500 57.615700 -1.075900 -6.014532 7.680038 1.285321 49.926356 -14.689712 76.063420 -29.019167 37.999129 -8.397514 0.952864 -1.645517 -21.288660 -24.746340 -19.367961 7.891500 7.125000 0.000000 0.000000 2.793800 -48.864800 -0.266500 
-35.111133 17.109594 1.738576 -168.520692 41.757116 -170.333253 17.284026 -0.332241 -0.582853 -3.508806 -39.072496 -19.145291 -9.295445 5.804959 3.224238 2.658716 7.155921 26.554933 14.220300 -19.179500 -72.876100 -23.426728 -2.977997 -6.844330 57.068310 4.889545 21.618074 14.247512 -2.959225 11.316663 -0.734063 6.757767 -18.275358 -0.105400 2.093100 -5.763100 -2.202851 -3.638949 19.543252 6.550650 -4.304057 -6.024980 26.902718 3.167797 -21.527353 -9.430437 -1.923427 -15.225862 0.009444 6.307725 26.537521 -0.199000 2.621400 21.481700 9.599863 -8.858421 1.762863 -119.640819 29.333169 -15.487476 18.491230 -36.104077 -6.815333 0.395553 3.640416 1.359551 27.123344 29.763778 12.428800 -7.125000 0.000000 0.000000 -3.240100 58.331500 -1.057300 -6.054357 7.691763 1.269175 50.127006 -15.125430 75.491417 -28.696823 37.861058 -8.452211 0.844512 -1.720348 -21.560370 -29.313477 -19.353396 9.452000 7.125000 0.000000 0.000000 -1.594900 -49.449200 0.175000 
-34.977396 17.084519 1.420181 -168.012352 42.855688 -169.953976 17.429314 -0.244239 -0.577671 -4.661722 -38.654203 -19.254472 -9.475349 6.748876 5.347258 2.338903 4.032626 23.446466 12.562700 -18.618500 -67.761600 -23.438554 -3.031253 -6.898609 56.764936 4.555043 22.091398 13.962999 -3.460862 12.770524 -0.579973 7.837042 -17.627584 -0.051700 1.467800 -4.037000 -1.482921 -3.707354 19.414510 6.485742 -4.210700 -6.052889 26.054873 3.021901 -21.640105 -9.367412 -1.934086 -15.062222 0.281174 6.052932 26.454709 -0.026800 2.517900 21.323300 9.584171 -8.850613 1.736363 -118.825768 29.666971 -14.855505 18.082499 -35.566253 -6.642357 0.366010 3.588043 1.161710 27.039947 29.583040 12.339300 -7.125000 0.000000 0.000000 -3.274100 58.186600 -1.057000 -6.116792 7.701310 1.255310 50.547194 -15.487759 75.467219 -28.530425 37.748529 -8.360077 0.869014 -1.720317 -21.909311 -29.033892 -19.707265 9.530800 7.125000 0.000000 0.000000 -1.278200 -49.790100 0.151000 
